PathFileType	4	(X/Y/Z)	c:\Git\powerlifing_model_clean\simulations\HC835B\Session1\HC835B_OGW_0003\marker_experimental.trc
DataRate	CameraRate	NumFrames	NumMarkers	Units	OrigDataRate	OrigDataStartFrame	OrigNumFrames
240.000000	240.000000	4	38	mm	240.000000	107	428
Frame#	Time	RPSI			LPSI			RASI			LASI			RTH1			RTH2			RTH3			RTH4			RSK1			RSK2			RSK3			RSK4			RCAL1			RCAL2			RCAL3			RST			RPT			RTN			RFMB			RSMB			RVMB			RFMH			RSMH			RVMH			RPM			LTH1			LTH2			LTH3			LTH4			LSK1			LSK2			LSK3			LSK4			LCAL1			LCAL2			LCAL3			LFMH			LVMH			
		X1	Y1	Z1	X2	Y2	Z2	X3	Y3	Z3	X4	Y4	Z4	X5	Y5	Z5	X6	Y6	Z6	X7	Y7	Z7	X8	Y8	Z8	X9	Y9	Z9	X10	Y10	Z10	X11	Y11	Z11	X12	Y12	Z12	X13	Y13	Z13	X14	Y14	Z14	X15	Y15	Z15	X16	Y16	Z16	X17	Y17	Z17	X18	Y18	Z18	X19	Y19	Z19	X20	Y20	Z20	X21	Y21	Z21	X22	Y22	Z22	X23	Y23	Z23	X24	Y24	Z24	X25	Y25	Z25	X26	Y26	Z26	X27	Y27	Z27	X28	Y28	Z28	X29	Y29	Z29	X30	Y30	Z30	X31	Y31	Z31	X32	Y32	Z32	X33	Y33	Z33	X34	Y34	Z34	X35	Y35	Z35	X36	Y36	Z36	X37	Y37	Z37	X38	Y38	Z38	

108	0.4458333333333333	442.3797607421876	1140.996826171875	-1833.051513671875	552.9265136718751	1132.96875	-1833.286987304688	380.3744201660157	1092.179443359375	-1627.422607421875	616.7906494140626	1094.529174804688	-1626.912719726563	323.1742858886719	817.1831054687502	-1734.473876953125	337.8906250000001	798.2271728515627	-1678.675537109375	340.1277160644532	735.1910400390626	-1724.133422851563	367.1175842285157	717.9464721679689	-1675.180908203125	406.7444152832032	296.9131774902344	-1886.204223632813	404.8406677246095	273.4067077636719	-1828.916748046875	414.7601623535157	238.9478607177735	-1878.845947265625	424.6463012695314	218.3234100341797	-1823.033569335938	486.4019470214845	95.04414367675783	-1954.768188476563	517.7338867187501	56.80858230590822	-1945.924194335938	454.5158691406251	57.48984909057619	-1955.2294921875	525.4013061523439	68.28044891357423	-1876.370971679688	426.072723388672	65.9911575317383	-1897.243408203125	507.2550354003907	85.3648147583008	-1821.847778320313	500.423797607422	68.93033599853517	-1789.407836914063	451.3279113769532	91.6279754638672	-1784.156982421875	411.9556579589845	39.35546493530274	-1856.2529296875	497.5813293457032	41.19437408447266	-1736.737060546875	442.8814697265626	53.69956970214845	-1726.953247070313	386.819061279297	31.38705253601075	-1780.254150390625	449.7098388671876	39.05623626708985	-1668.014282226563	707.3772583007814	829.717712402344	-1605.614868164063	704.2238159179689	846.384460449219	-1547.070190429688	707.7352905273439	765.2556152343751	-1549.230224609375	688.8904418945314	781.064147949219	-1492.64892578125	661.0911865234376	328.8549804687501	-1555.384033203125	674.5824584960939	310.7743225097657	-1507.011108398438	661.2980957031251	274.9426574707032	-1538.84619140625	659.3414916992189	259.5863952636719	-1483.818603515625	588.0128784179689	135.9197235107422	-1583.323852539063	613.4468994140626	95.02832031250001	-1589.405517578125	556.8436279296876	101.0310668945313	-1574.616333007813	595.8692626953126	91.48429107666017	-1358.273315429688	685.5409545898439	54.65572738647462	-1413.383056640625	
109	0.45	443.1113281250001	1139.874877929688	-1826.616455078125	553.6037597656251	1131.589965820313	-1826.5205078125	379.9638366699219	1091.045166015625	-1621.145629882813	616.8502807617189	1092.495239257813	-1619.979614257813	323.2112426757813	816.4685668945315	-1729.68408203125	337.9466247558594	797.2192382812502	-1673.8193359375	340.3098449707032	734.5997314453126	-1719.698120117188	367.3095092773438	717.0155639648439	-1670.924682617188	407.0747070312501	297.2157287597657	-1884.785522460938	405.0884704589845	273.3507385253907	-1827.51123046875	415.0486755371095	239.2115478515626	-1877.659057617188	424.870086669922	218.1492004394532	-1822.041015625	486.7651672363282	95.33963775634767	-1954.373168945313	518.0467529296876	57.10275650024415	-1945.6689453125	454.7774963378907	57.82129287719728	-1955.031616210938	525.6484375000001	68.31268310546876	-1876.067504882813	426.3192443847657	66.17933654785158	-1897.057250976563	507.1490478515626	85.2378387451172	-1821.15576171875	500.9539794921876	68.75820159912111	-1789.464599609375	451.4422302246095	91.5059280395508	-1783.8662109375	412.1026916503907	39.46726608276368	-1856.152954101563	497.4872436523439	41.09234619140626	-1736.52978515625	442.8153686523439	53.5556106567383	-1726.798950195313	386.8179321289064	31.37517929077149	-1780.26416015625	449.4786376953126	38.52502059936524	-1667.812744140625	706.2100830078126	828.0476684570315	-1598.958374023438	703.1083984375001	844.6455078125002	-1540.38818359375	706.3542480468751	763.3322143554689	-1542.580444335938	687.5008544921876	779.094421386719	-1486.003784179688	660.9725341796876	325.4352416992188	-1540.89111328125	674.1793823242189	308.7997436523438	-1491.924560546875	660.7616577148439	271.6973571777344	-1522.60400390625	659.0306396484376	258.2952880859376	-1467.188842773438	588.6672973632814	131.2451782226563	-1563.456787109375	613.9580078125001	90.31519317626955	-1568.046142578125	557.2908325195314	96.54157257080081	-1553.434204101563	596.3168945312501	93.57520294189455	-1336.868896484375	686.0775756835939	55.41631317138673	-1390.914916992188	
110	0.4541666666666667	443.8692932128907	1138.766479492188	-1820.164672851563	554.3598022460939	1130.086059570313	-1819.614013671875	379.5901489257813	1089.821899414063	-1614.8310546875	616.9592285156251	1090.364013671875	-1613.016479492188	323.2536926269532	815.8227539062502	-1724.804565429688	337.8806457519532	796.3835449218752	-1669.00146484375	340.4417724609376	733.7673339843751	-1715.41748046875	367.4288635253907	716.2006225585939	-1666.502075195313	407.4126281738282	297.6355590820313	-1883.28515625	405.2626953125001	273.1478881835938	-1826.289672851563	415.3323364257814	239.4340515136719	-1876.561645507813	425.0876464843751	218.0124206542969	-1821.039672851563	487.0858459472657	95.69878387451173	-1954.001708984375	518.3043823242189	57.39616775512697	-1945.384765625	455.0772094726564	58.27362060546876	-1954.816040039063	525.8672485351564	68.40586090087892	-1875.750610351563	426.565399169922	66.37518310546876	-1896.899780273438	507.5589599609376	85.13189697265626	-1821.052734375	500.8456420898439	68.49865722656251	-1788.968872070313	451.5448608398439	91.36899566650392	-1783.625244140625	412.2934570312501	39.71160507202149	-1856.041015625	497.443328857422	41.00194168090821	-1736.33251953125	442.7694396972657	53.38891220092775	-1726.63818359375	386.8159484863282	31.3790512084961	-1780.255249023438	449.3255310058595	38.07235336303712	-1667.578735351563	705.0389404296876	826.0902099609377	-1592.437744140625	701.9242553710939	842.6134033203127	-1533.836303710938	704.9276123046876	761.3496093750001	-1536.23291015625	686.1965942382814	777.135925292969	-1479.60595703125	661.6130981445314	322.4429626464844	-1526.676025390625	673.9879150390626	306.9466857910157	-1476.986572265625	660.3781738281251	268.8346252441407	-1506.525146484375	658.9376220703126	257.1241760253907	-1450.760986328125	589.3627319335939	127.2062377929688	-1543.435180664063	614.4266967773439	85.77873992919923	-1546.649291992188	557.7977294921876	92.3428421020508	-1532.292846679688	596.7478637695314	96.23720550537112	-1315.405029296875	686.6234130859376	56.49768829345705	-1368.604370117188	
111	0.4583333333333333	444.6751098632814	1137.588012695313	-1813.6220703125	555.1419067382814	1128.550903320313	-1812.641479492188	379.1557922363282	1088.545166015625	-1608.488891601563	617.0293579101564	1088.16748046875	-1605.977172851563	323.2809753417969	815.258483886719	-1719.880615234375	337.8273620605469	795.463806152344	-1664.205322265625	340.4509887695313	733.3349609375001	-1710.790283203125	367.4601440429688	715.2947998046876	-1662.065551757813	407.6763000488282	297.7254333496094	-1881.8466796875	405.4873046875001	273.0228881835938	-1824.981567382813	415.6155090332032	239.6156311035157	-1875.4853515625	425.2477111816407	217.8848724365235	-1820.035888671875	487.4054260253907	96.164909362793	-1953.6796875	518.5903930664064	57.70013427734376	-1945.1357421875	455.3680419921876	58.72156906127931	-1954.637817382813	526.1497802734376	68.48999023437501	-1875.409057617188	426.7563476562501	66.60882568359376	-1896.734130859375	507.7395935058595	85.11609649658205	-1820.724853515625	500.6404418945314	68.53577423095705	-1788.511840820313	451.6134338378907	91.29944610595705	-1783.302001953125	412.4130859375001	39.80863952636719	-1855.96826171875	497.332000732422	40.89070129394532	-1736.144287109375	442.7103576660157	53.25512313842775	-1726.464111328125	386.8532104492189	31.3224277496338	-1780.240600585938	449.4102783203126	37.58071517944337	-1667.483154296875	703.9576416015626	824.0476684570315	-1586.010986328125	700.7340087890626	840.4191894531252	-1527.408813476563	703.4954223632814	759.1747436523439	-1530.057495117188	684.9318847656251	774.9163208007815	-1473.305786132813	660.7634277343751	318.8081359863282	-1512.089721679688	673.8560791015626	305.2532653808594	-1462.18701171875	660.3908691406251	266.2348632812501	-1490.62890625	658.8284301757814	256.1196594238282	-1434.563110351563	590.2094116210939	122.7439804077149	-1523.092407226563	615.0184326171876	81.59849548339845	-1525.278442382813	558.3027954101564	88.44966888427736	-1511.138793945313	597.1550903320314	98.8006286621094	-1294.591674804688	687.0772094726564	57.93225479125978	-1346.47998046875	
